<svg width="211" height="71" viewBox="0 0 211 71" fill="none" xmlns="http://www.w3.org/2000/svg">
<rect x="97" width="109" height="34" fill="#64CCC5"/>
<path d="M112.534 13C112.489 12.4318 112.276 11.9886 111.895 11.6705C111.52 11.3523 110.949 11.1932 110.182 11.1932C109.693 11.1932 109.293 11.2528 108.98 11.3722C108.673 11.4858 108.446 11.642 108.298 11.8409C108.151 12.0398 108.074 12.267 108.068 12.5227C108.057 12.733 108.094 12.9233 108.179 13.0938C108.27 13.2585 108.412 13.4091 108.605 13.5455C108.798 13.6761 109.045 13.7955 109.347 13.9034C109.648 14.0114 110.006 14.108 110.42 14.1932L111.852 14.5C112.818 14.7045 113.645 14.9744 114.332 15.3097C115.02 15.6449 115.582 16.0398 116.02 16.4943C116.457 16.9432 116.778 17.4489 116.983 18.0114C117.193 18.5739 117.301 19.1875 117.307 19.8523C117.301 21 117.014 21.9716 116.446 22.767C115.878 23.5625 115.065 24.1676 114.009 24.5824C112.957 24.9972 111.693 25.2045 110.216 25.2045C108.699 25.2045 107.375 24.9801 106.244 24.5312C105.119 24.0824 104.244 23.392 103.619 22.4602C103 21.5227 102.688 20.3239 102.682 18.8636H107.182C107.21 19.3977 107.344 19.8466 107.582 20.2102C107.821 20.5739 108.156 20.8494 108.588 21.0369C109.026 21.2244 109.545 21.3182 110.148 21.3182C110.653 21.3182 111.077 21.2557 111.418 21.1307C111.759 21.0057 112.017 20.8324 112.193 20.6108C112.369 20.3892 112.46 20.1364 112.466 19.8523C112.46 19.5852 112.372 19.3523 112.202 19.1534C112.037 18.9489 111.764 18.767 111.384 18.608C111.003 18.4432 110.489 18.2898 109.841 18.1477L108.102 17.7727C106.557 17.4375 105.338 16.8778 104.446 16.0938C103.56 15.304 103.119 14.2273 103.125 12.8636C103.119 11.7557 103.415 10.7869 104.011 9.95739C104.614 9.12216 105.446 8.47159 106.509 8.00568C107.577 7.53977 108.801 7.30682 110.182 7.30682C111.591 7.30682 112.81 7.54261 113.838 8.0142C114.866 8.4858 115.659 9.15057 116.216 10.0085C116.778 10.8608 117.063 11.858 117.068 13H112.534ZM122.825 25.2045C121.99 25.2045 121.251 25.0682 120.609 24.7955C119.973 24.517 119.473 24.0966 119.109 23.5341C118.746 22.9716 118.564 22.2557 118.564 21.3864C118.564 20.6705 118.686 20.0597 118.93 19.554C119.175 19.0426 119.516 18.625 119.953 18.3011C120.391 17.9773 120.899 17.7301 121.479 17.5597C122.064 17.3892 122.695 17.2784 123.371 17.2273C124.104 17.1705 124.692 17.1023 125.135 17.0227C125.584 16.9375 125.908 16.821 126.107 16.6733C126.305 16.5199 126.405 16.3182 126.405 16.0682V16.0341C126.405 15.6932 126.274 15.4318 126.013 15.25C125.751 15.0682 125.416 14.9773 125.007 14.9773C124.558 14.9773 124.192 15.0767 123.908 15.2756C123.629 15.4687 123.462 15.767 123.405 16.1705H119.075C119.132 15.375 119.385 14.642 119.834 13.9716C120.288 13.2955 120.95 12.7557 121.82 12.3523C122.689 11.9432 123.774 11.7386 125.075 11.7386C126.013 11.7386 126.854 11.8494 127.598 12.071C128.342 12.2869 128.976 12.5909 129.499 12.983C130.021 13.3693 130.419 13.8239 130.692 14.3466C130.97 14.8636 131.109 15.4261 131.109 16.0341V25H126.712V23.1591H126.609C126.348 23.6477 126.03 24.0426 125.655 24.3438C125.286 24.6449 124.862 24.8636 124.385 25C123.913 25.1364 123.393 25.2045 122.825 25.2045ZM124.359 22.2386C124.717 22.2386 125.053 22.1648 125.365 22.017C125.683 21.8693 125.942 21.6562 126.141 21.3778C126.339 21.0994 126.439 20.7614 126.439 20.3636V19.2727C126.314 19.3239 126.18 19.3722 126.038 19.4176C125.902 19.4631 125.754 19.5057 125.595 19.5455C125.442 19.5852 125.277 19.6222 125.101 19.6562C124.93 19.6903 124.751 19.7216 124.564 19.75C124.2 19.8068 123.902 19.9006 123.669 20.0312C123.442 20.1562 123.271 20.3125 123.158 20.5C123.05 20.6818 122.996 20.8864 122.996 21.1136C122.996 21.4773 123.124 21.7557 123.379 21.9489C123.635 22.142 123.962 22.2386 124.359 22.2386ZM133.357 25V11.9091H137.823V14.3977H137.96C138.232 13.5795 138.698 12.9318 139.357 12.4545C140.016 11.9773 140.8 11.7386 141.71 11.7386C142.63 11.7386 143.423 11.983 144.087 12.4716C144.752 12.9545 145.153 13.5966 145.289 14.3977H145.425C145.647 13.5966 146.119 12.9545 146.84 12.4716C147.562 11.983 148.408 11.7386 149.38 11.7386C150.636 11.7386 151.653 12.142 152.431 12.9489C153.215 13.7557 153.607 14.8295 153.607 16.1705V25H148.903V17.3636C148.903 16.7898 148.758 16.3409 148.468 16.017C148.178 15.6875 147.789 15.5227 147.3 15.5227C146.817 15.5227 146.434 15.6875 146.15 16.017C145.871 16.3409 145.732 16.7898 145.732 17.3636V25H141.232V17.3636C141.232 16.7898 141.087 16.3409 140.798 16.017C140.508 15.6875 140.119 15.5227 139.63 15.5227C139.306 15.5227 139.028 15.5966 138.795 15.7443C138.562 15.892 138.38 16.1051 138.249 16.3835C138.124 16.6562 138.062 16.983 138.062 17.3636V25H133.357ZM155.928 29.9091V11.9091H160.598V14.1932H160.7C160.871 13.75 161.121 13.3437 161.45 12.9744C161.78 12.5994 162.189 12.3011 162.678 12.0795C163.166 11.8523 163.734 11.7386 164.382 11.7386C165.246 11.7386 166.067 11.9688 166.845 12.429C167.629 12.8892 168.266 13.6136 168.754 14.6023C169.249 15.5909 169.496 16.875 169.496 18.4545C169.496 19.9659 169.26 21.2187 168.788 22.2131C168.322 23.2074 167.697 23.9489 166.913 24.4375C166.135 24.9261 165.28 25.1705 164.348 25.1705C163.734 25.1705 163.186 25.071 162.703 24.8722C162.226 24.6676 161.817 24.392 161.476 24.0455C161.141 23.6932 160.882 23.2955 160.7 22.8523H160.632V29.9091H155.928ZM160.53 18.4545C160.53 19.0909 160.612 19.642 160.777 20.108C160.947 20.5682 161.186 20.9261 161.493 21.1818C161.805 21.4318 162.178 21.5568 162.609 21.5568C163.041 21.5568 163.408 21.4347 163.709 21.1903C164.016 20.9403 164.249 20.5852 164.408 20.125C164.572 19.6591 164.655 19.1023 164.655 18.4545C164.655 17.8068 164.572 17.2528 164.408 16.7926C164.249 16.3267 164.016 15.9716 163.709 15.7273C163.408 15.4773 163.041 15.3523 162.609 15.3523C162.178 15.3523 161.805 15.4773 161.493 15.7273C161.186 15.9716 160.947 16.3267 160.777 16.7926C160.612 17.2528 160.53 17.8068 160.53 18.4545ZM175.114 25.2045C174.279 25.2045 173.54 25.0682 172.898 24.7955C172.262 24.517 171.762 24.0966 171.398 23.5341C171.035 22.9716 170.853 22.2557 170.853 21.3864C170.853 20.6705 170.975 20.0597 171.219 19.554C171.464 19.0426 171.805 18.625 172.242 18.3011C172.68 17.9773 173.188 17.7301 173.768 17.5597C174.353 17.3892 174.984 17.2784 175.66 17.2273C176.393 17.1705 176.981 17.1023 177.424 17.0227C177.873 16.9375 178.197 16.821 178.396 16.6733C178.594 16.5199 178.694 16.3182 178.694 16.0682V16.0341C178.694 15.6932 178.563 15.4318 178.302 15.25C178.04 15.0682 177.705 14.9773 177.296 14.9773C176.847 14.9773 176.481 15.0767 176.197 15.2756C175.918 15.4687 175.751 15.767 175.694 16.1705H171.364C171.421 15.375 171.674 14.642 172.123 13.9716C172.577 13.2955 173.239 12.7557 174.109 12.3523C174.978 11.9432 176.063 11.7386 177.364 11.7386C178.302 11.7386 179.143 11.8494 179.887 12.071C180.631 12.2869 181.265 12.5909 181.788 12.983C182.31 13.3693 182.708 13.8239 182.981 14.3466C183.259 14.8636 183.398 15.4261 183.398 16.0341V25H179.001V23.1591H178.898C178.637 23.6477 178.319 24.0426 177.944 24.3438C177.575 24.6449 177.151 24.8636 176.674 25C176.202 25.1364 175.683 25.2045 175.114 25.2045ZM176.648 22.2386C177.006 22.2386 177.342 22.1648 177.654 22.017C177.972 21.8693 178.231 21.6562 178.43 21.3778C178.629 21.0994 178.728 20.7614 178.728 20.3636V19.2727C178.603 19.3239 178.469 19.3722 178.327 19.4176C178.191 19.4631 178.043 19.5057 177.884 19.5455C177.731 19.5852 177.566 19.6222 177.39 19.6562C177.219 19.6903 177.04 19.7216 176.853 19.75C176.489 19.8068 176.191 19.9006 175.958 20.0312C175.731 20.1562 175.56 20.3125 175.447 20.5C175.339 20.6818 175.285 20.8864 175.285 21.1136C175.285 21.4773 175.413 21.7557 175.668 21.9489C175.924 22.142 176.251 22.2386 176.648 22.2386ZM190.351 17.6364V25H185.646V7.54545H190.18V14.3977H190.317C190.612 13.5625 191.104 12.9119 191.791 12.446C192.479 11.9744 193.305 11.7386 194.271 11.7386C195.197 11.7386 196.001 11.9489 196.683 12.3693C197.371 12.7898 197.902 13.3693 198.277 14.108C198.658 14.8466 198.845 15.6932 198.839 16.6477V25H194.135V17.6364C194.141 16.9886 193.979 16.4801 193.649 16.1108C193.325 15.7415 192.862 15.5568 192.26 15.5568C191.879 15.5568 191.544 15.642 191.254 15.8125C190.97 15.9773 190.749 16.2159 190.589 16.5284C190.436 16.8352 190.357 17.2045 190.351 17.6364Z" fill="#EEEEEE" fill-opacity="0.933333"/>
<path d="M1.125 25V7.54545H13.7045V11.3636H5.86364V14.3636H13.0568V18.1818H5.86364V21.1818H13.6705V25H1.125ZM20.8615 25.1705C19.9297 25.1705 19.0717 24.9261 18.2876 24.4375C17.5092 23.9489 16.8842 23.2074 16.4126 22.2131C15.9467 21.2187 15.7138 19.9659 15.7138 18.4545C15.7138 16.875 15.9581 15.5909 16.4467 14.6023C16.9411 13.6136 17.5774 12.8892 18.3558 12.429C19.1399 11.9688 19.9638 11.7386 20.8274 11.7386C21.4751 11.7386 22.0433 11.8523 22.532 12.0795C23.0206 12.3011 23.4297 12.5994 23.7592 12.9744C24.0888 13.3437 24.3388 13.75 24.5092 14.1932H24.5774V7.54545H29.282V25H24.6115V22.8523H24.5092C24.3274 23.2955 24.0661 23.6932 23.7251 24.0455C23.3899 24.392 22.9808 24.6676 22.4979 24.8722C22.0206 25.071 21.4751 25.1705 20.8615 25.1705ZM22.6001 21.5568C23.032 21.5568 23.4013 21.4318 23.7081 21.1818C24.0206 20.9261 24.2592 20.5682 24.424 20.108C24.5945 19.642 24.6797 19.0909 24.6797 18.4545C24.6797 17.8068 24.5945 17.2528 24.424 16.7926C24.2592 16.3267 24.0206 15.9716 23.7081 15.7273C23.4013 15.4773 23.032 15.3523 22.6001 15.3523C22.1683 15.3523 21.799 15.4773 21.4922 15.7273C21.1911 15.9716 20.9581 16.3267 20.7933 16.7926C20.6342 17.2528 20.5547 17.8068 20.5547 18.4545C20.5547 19.1023 20.6342 19.6591 20.7933 20.125C20.9581 20.5852 21.1911 20.9403 21.4922 21.1903C21.799 21.4347 22.1683 21.5568 22.6001 21.5568ZM40.0803 19.2727V11.9091H44.7848V25H40.3189V22.5114H40.1825C39.8984 23.3466 39.4013 24 38.6911 24.4716C37.9808 24.9375 37.1371 25.1705 36.1598 25.1705C35.245 25.1705 34.4439 24.9602 33.7564 24.5398C33.0746 24.1193 32.5433 23.5398 32.1626 22.8011C31.7876 22.0625 31.5973 21.2159 31.5916 20.2614V11.9091H36.2962V19.2727C36.3018 19.9205 36.4666 20.429 36.7905 20.7983C37.12 21.1676 37.5803 21.3523 38.1712 21.3523C38.5632 21.3523 38.9013 21.2699 39.1854 21.1051C39.4751 20.9347 39.6967 20.696 39.8501 20.3892C40.0092 20.0767 40.0859 19.7045 40.0803 19.2727ZM51.4048 21.8977L51.4389 16.3068H52.0526L55.223 11.9091H60.5071L55.1889 18.7614H53.8594L51.4048 21.8977ZM47.1776 25V7.54545H51.8821V25H47.1776ZM55.2571 25L52.2571 19.8182L55.3253 16.4773L60.6435 25H55.2571ZM65.38 25.2045C64.5447 25.2045 63.8061 25.0682 63.1641 24.7955C62.5277 24.517 62.0277 24.0966 61.6641 23.5341C61.3004 22.9716 61.1186 22.2557 61.1186 21.3864C61.1186 20.6705 61.2408 20.0597 61.4851 19.554C61.7294 19.0426 62.0703 18.625 62.5078 18.3011C62.9453 17.9773 63.4538 17.7301 64.0334 17.5597C64.6186 17.3892 65.2493 17.2784 65.9254 17.2273C66.6584 17.1705 67.2464 17.1023 67.6896 17.0227C68.1385 16.9375 68.4624 16.821 68.6612 16.6733C68.8601 16.5199 68.9595 16.3182 68.9595 16.0682V16.0341C68.9595 15.6932 68.8288 15.4318 68.5675 15.25C68.3061 15.0682 67.9709 14.9773 67.5618 14.9773C67.1129 14.9773 66.7464 15.0767 66.4624 15.2756C66.1839 15.4687 66.0163 15.767 65.9595 16.1705H61.63C61.6868 15.375 61.9396 14.642 62.3885 13.9716C62.843 13.2955 63.505 12.7557 64.3743 12.3523C65.2436 11.9432 66.3288 11.7386 67.63 11.7386C68.5675 11.7386 69.4084 11.8494 70.1527 12.071C70.897 12.2869 71.5305 12.5909 72.0533 12.983C72.576 13.3693 72.9737 13.8239 73.2464 14.3466C73.5249 14.8636 73.6641 15.4261 73.6641 16.0341V25H69.2663V23.1591H69.1641C68.9027 23.6477 68.5845 24.0426 68.2095 24.3438C67.8402 24.6449 67.4169 24.8636 66.9396 25C66.468 25.1364 65.9482 25.2045 65.38 25.2045ZM66.9141 22.2386C67.272 22.2386 67.6072 22.1648 67.9197 22.017C68.2379 21.8693 68.4964 21.6562 68.6953 21.3778C68.8942 21.0994 68.9936 20.7614 68.9936 20.3636V19.2727C68.8686 19.3239 68.7351 19.3722 68.593 19.4176C68.4567 19.4631 68.3089 19.5057 68.1499 19.5455C67.9964 19.5852 67.8317 19.6222 67.6555 19.6562C67.4851 19.6903 67.3061 19.7216 67.1186 19.75C66.755 19.8068 66.4567 19.9006 66.2237 20.0312C65.9964 20.1562 65.826 20.3125 65.7124 20.5C65.6044 20.6818 65.5504 20.8864 65.5504 21.1136C65.5504 21.4773 65.6783 21.7557 65.9339 21.9489C66.1896 22.142 66.5163 22.2386 66.9141 22.2386ZM87.8778 16.1705H83.5483C83.5256 15.9034 83.4318 15.6733 83.267 15.4801C83.1023 15.2869 82.8892 15.1392 82.6278 15.0369C82.3722 14.929 82.0881 14.875 81.7756 14.875C81.3722 14.875 81.0256 14.9489 80.7358 15.0966C80.446 15.2443 80.304 15.4545 80.3097 15.7273C80.304 15.9205 80.3864 16.0994 80.5568 16.2642C80.733 16.429 81.071 16.5568 81.571 16.6477L84.2301 17.125C85.571 17.3693 86.5682 17.7812 87.2216 18.3608C87.8807 18.9347 88.2131 19.7045 88.2188 20.6705C88.2131 21.6023 87.9347 22.4119 87.3835 23.0994C86.8381 23.7812 86.0909 24.3097 85.142 24.6847C84.1989 25.054 83.1222 25.2386 81.9119 25.2386C79.9119 25.2386 78.3466 24.8295 77.2159 24.0114C76.0909 23.1932 75.4631 22.1136 75.3324 20.7727H80.0028C80.0653 21.1875 80.2699 21.5085 80.6165 21.7358C80.9688 21.9574 81.4119 22.0682 81.946 22.0682C82.3778 22.0682 82.733 21.9943 83.0114 21.8466C83.2955 21.6989 83.4403 21.4886 83.446 21.2159C83.4403 20.9659 83.3153 20.767 83.071 20.6193C82.8324 20.4716 82.4574 20.3523 81.946 20.2614L79.6278 19.8523C78.2926 19.6193 77.2926 19.1761 76.6278 18.5227C75.9631 17.8693 75.6335 17.0284 75.6392 16C75.6335 15.0909 75.8722 14.321 76.3551 13.6903C76.8438 13.054 77.5398 12.571 78.4432 12.2415C79.3523 11.9062 80.429 11.7386 81.6733 11.7386C83.5653 11.7386 85.0568 12.1307 86.1477 12.9148C87.2443 13.6989 87.821 14.7841 87.8778 16.1705ZM90.0213 25V11.9091H94.7259V25H90.0213ZM92.3736 10.5455C91.7372 10.5455 91.1918 10.3352 90.7372 9.91477C90.2827 9.49432 90.0554 8.98864 90.0554 8.39773C90.0554 7.80682 90.2827 7.30114 90.7372 6.88068C91.1918 6.46023 91.7372 6.25 92.3736 6.25C93.0156 6.25 93.5611 6.46023 94.0099 6.88068C94.4645 7.30114 94.6918 7.80682 94.6918 8.39773C94.6918 8.98864 94.4645 9.49432 94.0099 9.91477C93.5611 10.3352 93.0156 10.5455 92.3736 10.5455Z" fill="#176B87"/>
</svg>
