<svg width="130" height="18" viewBox="0 0 130 18" fill="none" xmlns="http://www.w3.org/2000/svg">
<rect x="60" y="1" width="70" height="15" fill="#64CCC5"/>
<path d="M0.703125 14V3.09091H8.56534V5.47727H3.66477V7.35227H8.16051V9.73864H3.66477V11.6136H8.54403V14H0.703125ZM13.0384 14.1065C12.4561 14.1065 11.9198 13.9538 11.4298 13.6484C10.9433 13.343 10.5526 12.8796 10.2579 12.2582C9.96671 11.6367 9.82111 10.8537 9.82111 9.90909C9.82111 8.92187 9.97381 8.11932 10.2792 7.50142C10.5882 6.88352 10.9859 6.43075 11.4724 6.14311C11.9624 5.85547 12.4774 5.71165 13.0171 5.71165C13.422 5.71165 13.7771 5.78267 14.0825 5.92472C14.3879 6.06321 14.6436 6.24964 14.8495 6.48402C15.0555 6.71484 15.2117 6.96875 15.3183 7.24574H15.3609V3.09091H18.3012V14H15.3822V12.6577H15.3183C15.2046 12.9347 15.0413 13.1832 14.8282 13.4034C14.6187 13.62 14.363 13.7923 14.0612 13.9201C13.7629 14.0444 13.422 14.1065 13.0384 14.1065ZM14.1251 11.848C14.395 11.848 14.6258 11.7699 14.8176 11.6136C15.0129 11.4538 15.162 11.2301 15.265 10.9425C15.3715 10.6513 15.4248 10.3068 15.4248 9.90909C15.4248 9.50426 15.3715 9.15803 15.265 8.87038C15.162 8.57919 15.0129 8.35724 14.8176 8.20455C14.6258 8.0483 14.395 7.97017 14.1251 7.97017C13.8552 7.97017 13.6244 8.0483 13.4326 8.20455C13.2444 8.35724 13.0988 8.57919 12.9958 8.87038C12.8964 9.15803 12.8467 9.50426 12.8467 9.90909C12.8467 10.3139 12.8964 10.6619 12.9958 10.9531C13.0988 11.2408 13.2444 11.4627 13.4326 11.619C13.6244 11.7717 13.8552 11.848 14.1251 11.848ZM25.0502 10.4205V5.81818H27.9905V14H25.1993V12.4446H25.1141C24.9365 12.9666 24.6258 13.375 24.1819 13.6697C23.738 13.9609 23.2107 14.1065 22.5999 14.1065C22.0281 14.1065 21.5274 13.9751 21.0977 13.7124C20.6716 13.4496 20.3396 13.0874 20.1017 12.6257C19.8673 12.1641 19.7483 11.6349 19.7448 11.0384V5.81818H22.6851V10.4205C22.6887 10.8253 22.7916 11.1431 22.9941 11.3739C23.2 11.6048 23.4877 11.7202 23.857 11.7202C24.102 11.7202 24.3133 11.6687 24.4909 11.5657C24.672 11.4592 24.8105 11.31 24.9063 11.1183C25.0058 10.9229 25.0537 10.6903 25.0502 10.4205ZM32.128 12.0611L32.1493 8.56676H32.5328L34.5144 5.81818H37.8169L34.4931 10.1009H33.6621L32.128 12.0611ZM29.486 14V3.09091H32.4263V14H29.486ZM34.5357 14L32.6607 10.7614L34.5783 8.6733L37.9022 14H34.5357ZM40.8625 14.1278C40.3405 14.1278 39.8788 14.0426 39.4775 13.8722C39.0798 13.6982 38.7673 13.4354 38.54 13.0838C38.3128 12.7322 38.1991 12.2848 38.1991 11.7415C38.1991 11.294 38.2755 10.9123 38.4282 10.5962C38.5809 10.2766 38.7939 10.0156 39.0674 9.81321C39.3408 9.6108 39.6586 9.45632 40.0209 9.34979C40.3866 9.24325 40.7808 9.17401 41.2034 9.14205C41.6615 9.10653 42.029 9.06392 42.306 9.0142C42.5866 8.96094 42.789 8.88814 42.9133 8.79581C43.0376 8.69993 43.0997 8.57386 43.0997 8.41761V8.39631C43.0997 8.18324 43.018 8.01989 42.8547 7.90625C42.6913 7.79261 42.4818 7.7358 42.2261 7.7358C41.9456 7.7358 41.7165 7.79794 41.539 7.92223C41.365 8.04297 41.2602 8.2294 41.2247 8.48153H38.5187C38.5542 7.98437 38.7123 7.52628 38.9928 7.10724C39.2769 6.68466 39.6906 6.3473 40.2339 6.09517C40.7773 5.83949 41.4555 5.71165 42.2687 5.71165C42.8547 5.71165 43.3802 5.78089 43.8454 5.91939C44.3106 6.05433 44.7066 6.24432 45.0333 6.48935C45.36 6.73082 45.6086 7.01491 45.779 7.34162C45.953 7.66477 46.04 8.01634 46.04 8.39631V14H43.2915V12.8494H43.2275C43.0642 13.1548 42.8653 13.4016 42.6309 13.5898C42.4001 13.7781 42.1356 13.9148 41.8373 14C41.5425 14.0852 41.2176 14.1278 40.8625 14.1278ZM41.8213 12.2741C42.045 12.2741 42.2545 12.228 42.4498 12.1357C42.6487 12.0433 42.8103 11.9102 42.9346 11.7362C43.0589 11.5621 43.121 11.3509 43.121 11.1023V10.4205C43.0429 10.4524 42.9594 10.4826 42.8707 10.511C42.7854 10.5394 42.6931 10.5661 42.5937 10.5909C42.4978 10.6158 42.3948 10.6388 42.2847 10.6602C42.1782 10.6815 42.0663 10.701 41.9491 10.7188C41.7219 10.7543 41.5354 10.8129 41.3898 10.8945C41.2478 10.9727 41.1412 11.0703 41.0702 11.1875C41.0028 11.3011 40.969 11.429 40.969 11.571C40.969 11.7983 41.0489 11.9723 41.2087 12.093C41.3685 12.2138 41.5727 12.2741 41.8213 12.2741ZM54.9237 8.48153H52.2177C52.2035 8.31463 52.1449 8.17081 52.0419 8.05007C51.9389 7.92933 51.8058 7.837 51.6424 7.77308C51.4826 7.70561 51.305 7.67188 51.1097 7.67188C50.8576 7.67188 50.641 7.71804 50.4599 7.81037C50.2788 7.9027 50.19 8.03409 50.1935 8.20455C50.19 8.32528 50.2415 8.43714 50.348 8.54013C50.4581 8.64311 50.6694 8.72301 50.9819 8.77983L52.6438 9.07812C53.4819 9.23082 54.1051 9.48828 54.5135 9.8505C54.9254 10.2092 55.1332 10.6903 55.1367 11.294C55.1332 11.8764 54.9592 12.3825 54.6147 12.8121C54.2738 13.2383 53.8068 13.5685 53.2138 13.8029C52.6243 14.0337 51.9513 14.1491 51.195 14.1491C49.945 14.1491 48.9666 13.8935 48.2599 13.3821C47.5568 12.8707 47.1644 12.196 47.0827 11.358H50.0018C50.0408 11.6172 50.1687 11.8178 50.3853 11.9599C50.6055 12.0984 50.8825 12.1676 51.2163 12.1676C51.4862 12.1676 51.7081 12.1214 51.8821 12.0291C52.0597 11.9368 52.1502 11.8054 52.1538 11.6349C52.1502 11.4787 52.0721 11.3544 51.9194 11.2621C51.7702 11.1697 51.5359 11.0952 51.2163 11.0384L49.7674 10.7827C48.9329 10.6371 48.3079 10.3601 47.8924 9.9517C47.4769 9.54332 47.271 9.01776 47.2745 8.375C47.271 7.80682 47.4201 7.32564 47.7219 6.93146C48.0273 6.53374 48.4624 6.23189 49.027 6.02592C49.5952 5.81641 50.2681 5.71165 51.0458 5.71165C52.2283 5.71165 53.1605 5.95668 53.8423 6.44673C54.5277 6.93679 54.8881 7.61506 54.9237 8.48153ZM56.2633 14V5.81818H59.2037V14H56.2633ZM57.7335 4.96591C57.3358 4.96591 56.9949 4.83452 56.7108 4.57173C56.4267 4.30895 56.2846 3.9929 56.2846 3.62358C56.2846 3.25426 56.4267 2.93821 56.7108 2.67543C56.9949 2.41264 57.3358 2.28125 57.7335 2.28125C58.1348 2.28125 58.4757 2.41264 58.7562 2.67543C59.0403 2.93821 59.1824 3.25426 59.1824 3.62358C59.1824 3.9929 59.0403 4.30895 58.7562 4.57173C58.4757 4.83452 58.1348 4.96591 57.7335 4.96591Z" fill="#176B87"/>
<path d="M70.5838 6.5C70.5554 6.14489 70.4222 5.8679 70.1843 5.66903C69.9499 5.47017 69.593 5.37074 69.1136 5.37074C68.8082 5.37074 68.5579 5.40803 68.3626 5.4826C68.1708 5.55362 68.0288 5.65128 67.9364 5.77557C67.8441 5.89986 67.7962 6.0419 67.7926 6.2017C67.7855 6.3331 67.8086 6.45206 67.8619 6.55859C67.9187 6.66158 68.0075 6.75568 68.1282 6.84091C68.2489 6.92259 68.4034 6.99716 68.5916 7.06463C68.7798 7.1321 69.0036 7.19247 69.2628 7.24574L70.1577 7.4375C70.7614 7.56534 71.2781 7.73402 71.7077 7.94354C72.1374 8.15305 72.489 8.39986 72.7624 8.68395C73.0359 8.96449 73.2365 9.28054 73.3643 9.6321C73.4957 9.98366 73.5632 10.3672 73.5668 10.7827C73.5632 11.5 73.3839 12.1072 73.0288 12.6044C72.6737 13.1016 72.1658 13.4798 71.5053 13.739C70.8484 13.9982 70.0582 14.1278 69.1349 14.1278C68.1868 14.1278 67.3594 13.9876 66.6527 13.707C65.9496 13.4265 65.4027 12.995 65.0121 12.4126C64.625 11.8267 64.4297 11.0774 64.4261 10.1648H67.2386C67.2564 10.4986 67.3398 10.7791 67.489 11.0064C67.6381 11.2337 67.8477 11.4059 68.1175 11.5231C68.391 11.6403 68.7159 11.6989 69.0923 11.6989C69.4084 11.6989 69.6729 11.6598 69.886 11.5817C70.0991 11.5036 70.2607 11.3952 70.3707 11.2567C70.4808 11.1183 70.5376 10.9602 70.5412 10.7827C70.5376 10.6158 70.4826 10.4702 70.3761 10.3459C70.2731 10.218 70.1026 10.1044 69.8647 10.005C69.6268 9.90199 69.3054 9.80611 68.9006 9.71733L67.8139 9.48295C66.848 9.27344 66.0863 8.92365 65.5288 8.43359C64.9748 7.93999 64.6996 7.26705 64.7031 6.41477C64.6996 5.7223 64.8842 5.11683 65.2571 4.59837C65.6335 4.07635 66.1538 3.66974 66.8178 3.37855C67.4854 3.08736 68.2507 2.94176 69.1136 2.94176C69.9943 2.94176 70.756 3.08913 71.3988 3.38388C72.0415 3.67862 72.5369 4.09411 72.8849 4.63033C73.2365 5.163 73.4141 5.78622 73.4176 6.5H70.5838ZM77.0158 14.1278C76.4938 14.1278 76.0321 14.0426 75.6309 13.8722C75.2331 13.6982 74.9206 13.4354 74.6934 13.0838C74.4661 12.7322 74.3525 12.2848 74.3525 11.7415C74.3525 11.294 74.4288 10.9123 74.5815 10.5962C74.7342 10.2766 74.9473 10.0156 75.2207 9.81321C75.4941 9.6108 75.812 9.45632 76.1742 9.34979C76.54 9.24325 76.9341 9.17401 77.3567 9.14205C77.8148 9.10653 78.1824 9.06392 78.4593 9.0142C78.7399 8.96094 78.9423 8.88814 79.0666 8.79581C79.1909 8.69993 79.253 8.57386 79.253 8.41761V8.39631C79.253 8.18324 79.1713 8.01989 79.008 7.90625C78.8446 7.79261 78.6351 7.7358 78.3794 7.7358C78.0989 7.7358 77.8699 7.79794 77.6923 7.92223C77.5183 8.04297 77.4135 8.2294 77.378 8.48153H74.6721C74.7076 7.98437 74.8656 7.52628 75.1461 7.10724C75.4302 6.68466 75.8439 6.3473 76.3873 6.09517C76.9306 5.83949 77.6088 5.71165 78.4221 5.71165C79.008 5.71165 79.5336 5.78089 79.9988 5.91939C80.464 6.05433 80.8599 6.24432 81.1866 6.48935C81.5133 6.73082 81.7619 7.01491 81.9324 7.34162C82.1064 7.66477 82.1934 8.01634 82.1934 8.39631V14H79.4448V12.8494H79.3809C79.2175 13.1548 79.0186 13.4016 78.7843 13.5898C78.5534 13.7781 78.2889 13.9148 77.9906 14C77.6958 14.0852 77.3709 14.1278 77.0158 14.1278ZM77.9746 12.2741C78.1983 12.2741 78.4078 12.228 78.6032 12.1357C78.802 12.0433 78.9636 11.9102 79.0879 11.7362C79.2122 11.5621 79.2743 11.3509 79.2743 11.1023V10.4205C79.1962 10.4524 79.1127 10.4826 79.024 10.511C78.9387 10.5394 78.8464 10.5661 78.747 10.5909C78.6511 10.6158 78.5481 10.6388 78.438 10.6602C78.3315 10.6815 78.2196 10.701 78.1025 10.7188C77.8752 10.7543 77.6887 10.8129 77.5431 10.8945C77.4011 10.9727 77.2946 11.0703 77.2235 11.1875C77.1561 11.3011 77.1223 11.429 77.1223 11.571C77.1223 11.7983 77.2022 11.9723 77.362 12.093C77.5218 12.2138 77.726 12.2741 77.9746 12.2741ZM83.5983 14V5.81818H86.3895V7.37358H86.4747C86.6452 6.86222 86.9363 6.45739 87.3483 6.15909C87.7602 5.8608 88.2503 5.71165 88.8184 5.71165C89.3937 5.71165 89.8891 5.86435 90.3046 6.16974C90.7201 6.47159 90.9704 6.87287 91.0557 7.37358H91.1409C91.2794 6.87287 91.5741 6.47159 92.0251 6.16974C92.4761 5.86435 93.0052 5.71165 93.6125 5.71165C94.3973 5.71165 95.0329 5.96378 95.5194 6.46804C96.0095 6.9723 96.2545 7.64347 96.2545 8.48153V14H93.3142V9.22727C93.3142 8.86861 93.2236 8.58807 93.0425 8.38565C92.8614 8.17969 92.6182 8.0767 92.3128 8.0767C92.0109 8.0767 91.7712 8.17969 91.5937 8.38565C91.4197 8.58807 91.3327 8.86861 91.3327 9.22727V14H88.5202V9.22727C88.5202 8.86861 88.4296 8.58807 88.2485 8.38565C88.0674 8.17969 87.8241 8.0767 87.5187 8.0767C87.3163 8.0767 87.1423 8.12287 86.9967 8.2152C86.8511 8.30753 86.7375 8.4407 86.6558 8.6147C86.5777 8.78516 86.5386 8.98935 86.5386 9.22727V14H83.5983ZM97.7047 17.0682V5.81818H100.624V7.24574H100.688C100.794 6.96875 100.95 6.71484 101.156 6.48402C101.362 6.24964 101.618 6.06321 101.923 5.92472C102.229 5.78267 102.584 5.71165 102.989 5.71165C103.529 5.71165 104.042 5.85547 104.528 6.14311C105.018 6.43075 105.416 6.88352 105.721 7.50142C106.03 8.11932 106.185 8.92187 106.185 9.90909C106.185 10.8537 106.037 11.6367 105.743 12.2582C105.452 12.8796 105.061 13.343 104.571 13.6484C104.084 13.9538 103.55 14.1065 102.968 14.1065C102.584 14.1065 102.241 14.0444 101.939 13.9201C101.641 13.7923 101.385 13.62 101.172 13.4034C100.963 13.1832 100.801 12.9347 100.688 12.6577H100.645V17.0682H97.7047ZM100.581 9.90909C100.581 10.3068 100.633 10.6513 100.736 10.9425C100.842 11.2301 100.991 11.4538 101.183 11.6136C101.378 11.7699 101.611 11.848 101.881 11.848C102.151 11.848 102.38 11.7717 102.568 11.619C102.76 11.4627 102.905 11.2408 103.005 10.9531C103.108 10.6619 103.159 10.3139 103.159 9.90909C103.159 9.50426 103.108 9.15803 103.005 8.87038C102.905 8.57919 102.76 8.35724 102.568 8.20455C102.38 8.0483 102.151 7.97017 101.881 7.97017C101.611 7.97017 101.378 8.0483 101.183 8.20455C100.991 8.35724 100.842 8.57919 100.736 8.87038C100.633 9.15803 100.581 9.50426 100.581 9.90909ZM109.696 14.1278C109.174 14.1278 108.713 14.0426 108.312 13.8722C107.914 13.6982 107.601 13.4354 107.374 13.0838C107.147 12.7322 107.033 12.2848 107.033 11.7415C107.033 11.294 107.109 10.9123 107.262 10.5962C107.415 10.2766 107.628 10.0156 107.901 9.81321C108.175 9.6108 108.493 9.45632 108.855 9.34979C109.221 9.24325 109.615 9.17401 110.037 9.14205C110.495 9.10653 110.863 9.06392 111.14 9.0142C111.421 8.96094 111.623 8.88814 111.747 8.79581C111.872 8.69993 111.934 8.57386 111.934 8.41761V8.39631C111.934 8.18324 111.852 8.01989 111.689 7.90625C111.525 7.79261 111.316 7.7358 111.06 7.7358C110.78 7.7358 110.551 7.79794 110.373 7.92223C110.199 8.04297 110.094 8.2294 110.059 8.48153H107.353C107.388 7.98437 107.546 7.52628 107.827 7.10724C108.111 6.68466 108.525 6.3473 109.068 6.09517C109.611 5.83949 110.29 5.71165 111.103 5.71165C111.689 5.71165 112.214 5.78089 112.679 5.91939C113.145 6.05433 113.541 6.24432 113.867 6.48935C114.194 6.73082 114.443 7.01491 114.613 7.34162C114.787 7.66477 114.874 8.01634 114.874 8.39631V14H112.125V12.8494H112.062C111.898 13.1548 111.699 13.4016 111.465 13.5898C111.234 13.7781 110.97 13.9148 110.671 14C110.377 14.0852 110.052 14.1278 109.696 14.1278ZM110.655 12.2741C110.879 12.2741 111.089 12.228 111.284 12.1357C111.483 12.0433 111.644 11.9102 111.769 11.7362C111.893 11.5621 111.955 11.3509 111.955 11.1023V10.4205C111.877 10.4524 111.793 10.4826 111.705 10.511C111.619 10.5394 111.527 10.5661 111.428 10.5909C111.332 10.6158 111.229 10.6388 111.119 10.6602C111.012 10.6815 110.9 10.701 110.783 10.7188C110.556 10.7543 110.369 10.8129 110.224 10.8945C110.082 10.9727 109.975 11.0703 109.904 11.1875C109.837 11.3011 109.803 11.429 109.803 11.571C109.803 11.7983 109.883 11.9723 110.043 12.093C110.203 12.2138 110.407 12.2741 110.655 12.2741ZM119.219 9.39773V14H116.279V3.09091H119.113V7.37358H119.198C119.383 6.85156 119.69 6.44496 120.119 6.15376C120.549 5.85902 121.066 5.71165 121.67 5.71165C122.248 5.71165 122.751 5.84304 123.177 6.10582C123.607 6.36861 123.939 6.73082 124.173 7.19247C124.411 7.65412 124.528 8.18324 124.525 8.77983V14H121.584V9.39773C121.588 8.9929 121.487 8.67507 121.281 8.44425C121.078 8.21342 120.789 8.09801 120.412 8.09801C120.175 8.09801 119.965 8.15128 119.784 8.25781C119.606 8.3608 119.468 8.50994 119.368 8.70526C119.273 8.89702 119.223 9.12784 119.219 9.39773Z" fill="#EEEEEE" fill-opacity="0.933333"/>
</svg>
